<?xml version="1.0" encoding="utf-8"?>
<svg viewBox="0 0 120 120" xmlns="http://www.w3.org/2000/svg">
  <defs>
    <view id="play" viewBox="140 0 120 120">
      <title>Play</title>
    </view>
    <view id="pause" viewBox="280 0 120 120">
      <title>Pause</title>
    </view>
    <view id="volume" viewBox="420 0 120 120">
      <title>volume</title>
    </view>
  </defs>
  <path d="M 166.716 10 L 233.284 60 L 166.716 110 L 166.716 10 Z" style="alignment-baseline: initial; stroke-miterlimit: 5; stroke-width: 5px; stroke-linejoin: round; stroke-linecap: round; fill: none; stroke: rgb(255, 255, 255);"/>
  <rect x="350" y="16.964" width="19.865" height="86.071" style="fill: none; stroke-linecap: round; stroke-width: 5px; stroke-linejoin: round; stroke: rgb(255, 255, 255);"/>
  <rect x="310" y="16.964" width="19.865" height="86.071" style="fill: none; stroke-linecap: round; stroke-width: 5px; stroke-linejoin: round; stroke: rgb(255, 255, 255);"/>
  <path d="M 435 45 L 475 10 L 475 110 L 435 75 L 435 45 Z" style="fill: none; stroke-linecap: round; stroke-width: 5px; stroke-linejoin: round; stroke: rgb(255, 255, 255);"/>
  <path style="fill: none; stroke-linecap: round; stroke-width: 5px; stroke: rgb(255, 255, 255);" d="M 485 35 C 494.333 44.375 494.333 75.625 485 85"/>
  <path style="fill: none; stroke-linecap: round; stroke-width: 5px; stroke: rgb(255, 255, 255);" d="M 500 25 C 515 38.125 515 81.875 500 95"/>
  <path style="fill: none; stroke-linecap: round; stroke-width: 5px; stroke: rgb(255, 255, 255);" d="M 515 15 C 535 31.875 535 88.125 515 105"/>
  <path style="fill: rgb(216, 216, 216); stroke-linecap: round; stroke-width: 6px; stroke: rgb(255, 255, 255);" d="M 110 10 L 10 110"/>
  <path style="fill: rgb(216, 216, 216); stroke-linecap: round; stroke-width: 6px; stroke: rgb(255, 255, 255);" d="M 110 110 L 10 10" transform="matrix(-1, 0, 0, -1, 120, 120)"/>
</svg>